<?xml version="1.0" encoding="UTF-8"?>
<svg width="213px" height="40px" viewBox="0 0 213 40" version="1.1" xmlns="http://www.w3.org/2000/svg" xmlns:xlink="http://www.w3.org/1999/xlink">
    <title>ACF9DC66-28C3-4DE4-AE5E-68C11503537D</title>
    <g id="website" stroke="none" stroke-width="1" fill="none" fill-rule="evenodd">
        <g id="homepage_v2_server" transform="translate(-50.000000, -20.000000)" fill-rule="nonzero">
            <g id="top-nav">
                <g id="rzt-logo_default" transform="translate(50.000000, 20.000000)">
                    <path d="M47.9384045,19.3357544 C48.9339621,19.3357544 49.7215076,19.1389429 50.3010644,18.7453139 C50.8806212,18.351685 51.1703953,17.6417577 51.1703953,16.6155108 C51.1703953,15.5119439 50.7650671,14.7598427 49.9543988,14.3591846 C49.52062,14.148312 48.9410719,14.0428772 48.215737,14.0428772 L40.9090909,14.0428772 L40.9090909,19.3357544 L47.9384045,19.3357544 Z M40.9090909,12.239925 L48.1624038,12.239925 C49.3570731,12.239925 50.3419494,12.412135 51.1170622,12.7565605 C52.5890654,13.4172948 53.3250559,14.6368234 53.3250559,16.4151827 C53.3250559,17.3430224 53.1312806,18.1021526 52.7437242,18.6925961 C52.3561678,19.2830395 51.8139526,19.7574959 51.1170622,20.1159793 C51.728619,20.3619975 52.1890575,20.6853307 52.4983915,21.0859888 C52.8077255,21.4866468 52.9801678,22.1368277 53.0157234,23.0365511 L53.0903899,25.1136364 C53.1117232,25.7040798 53.1615004,26.1433913 53.2397228,26.4315839 C53.367723,26.9236201 53.5952757,27.239925 53.9223875,27.3805061 L53.9223875,27.7284443 L51.3197282,27.7284443 C51.2486169,27.5948916 51.1917288,27.4226815 51.149062,27.2118088 C51.1063952,27.0009362 51.0708402,26.5932552 51.0423957,25.9887536 L50.914396,23.4055764 C50.8646181,22.3933876 50.4841786,21.7150907 49.7730659,21.3706654 C49.3677317,21.18088 48.7312954,21.0859888 47.863738,21.0859888 L43.0317516,21.0859888 L43.0317516,27.7284443 L40.9090909,27.7284443 L40.9090909,12.239925 Z M64.3970246,12.239925 L66.7970179,12.239925 L72.4823351,27.7284443 L70.1570084,27.7284443 L65.4690216,14.5384254 L60.6743685,27.7284443 L58.4983746,27.7284443 L64.3970246,12.239925 Z M76.6636567,25.9887536 L86.2742962,14.0850515 L77.3676547,14.0850515 L77.3676547,12.239925 L89.0049552,12.239925 L89.0049552,14.0428772 L79.3409824,25.8833178 L89.0049552,25.8833178 L89.0049552,27.7284443 L76.6636567,27.7284443 L76.6636567,25.9887536 Z M101.346254,11.8181818 C104.112482,11.8181818 106.160456,12.6968047 107.490237,14.4540768 C108.52846,15.8247491 109.047565,17.5784804 109.047565,19.7153234 C109.047565,22.0278935 108.453795,23.9503204 107.266237,25.4826617 C105.872456,27.2821084 103.884926,28.1818182 101.303587,28.1818182 C98.8929152,28.1818182 96.9978284,27.3945721 95.6182698,25.8200563 C94.3880449,24.3017731 93.7729417,22.3828607 93.7729417,20.0632615 C93.7729417,17.9685931 94.2991572,16.1762024 95.3516039,14.6860356 C96.7027179,12.7741235 98.7009145,11.8181818 101.346254,11.8181818 Z M101.559586,26.3050609 C103.429813,26.3050609 104.782684,25.6425792 105.618242,24.3175961 C106.453799,22.9926129 106.871571,21.4690807 106.871571,19.7469541 C106.871571,17.9264201 106.389799,16.4608771 105.426242,15.3502812 C104.462684,14.2396851 103.145368,13.6843954 101.474253,13.6843954 C99.8529164,13.6843954 98.5302667,14.2344134 97.5062644,15.3344658 C96.4822623,16.4345182 95.9702688,18.056456 95.9702688,20.200328 C95.9702688,21.9154257 96.4093743,23.3616389 97.2875984,24.5390112 C98.1658226,25.7163836 99.5898043,26.3050609 101.559586,26.3050609 L101.559586,26.3050609 Z M122.274195,19.3357544 C123.269752,19.3357544 124.057298,19.1389429 124.636855,18.7453139 C125.216411,18.351685 125.506185,17.6417577 125.506185,16.6155108 C125.506185,15.5119439 125.100857,14.7598427 124.290189,14.3591846 C123.85641,14.148312 123.276862,14.0428772 122.551527,14.0428772 L115.244881,14.0428772 L115.244881,19.3357544 L122.274195,19.3357544 Z M115.244881,12.239925 L122.498194,12.239925 C123.692863,12.239925 124.67774,12.412135 125.452852,12.7565605 C126.924855,13.4172948 127.660846,14.6368234 127.660846,16.4151827 C127.660846,17.3430224 127.46707,18.1021526 127.079514,18.6925961 C126.691958,19.2830395 126.149742,19.7574959 125.452852,20.1159793 C126.064409,20.3619975 126.524847,20.6853307 126.834182,21.0859888 C127.143516,21.4866468 127.315958,22.1368277 127.351513,23.0365511 L127.42618,25.1136364 C127.447513,25.7040798 127.49729,26.1433913 127.575513,26.4315839 C127.703514,26.9236201 127.931066,27.239925 128.258178,27.3805061 L128.258178,27.7284443 L125.655518,27.7284443 C125.584407,27.5948916 125.527519,27.4226815 125.484852,27.2118088 C125.442185,27.0009362 125.40663,26.5932552 125.378186,25.9887536 L125.250187,23.4055764 C125.200408,22.3933876 124.819968,21.7150907 124.108856,21.3706654 C123.703522,21.18088 123.067086,21.0859888 122.199528,21.0859888 L117.367542,21.0859888 L117.367542,27.7284443 L115.244881,27.7284443 L115.244881,19.3357544 L115.244881,14.0428772 L115.244881,12.239925 Z M145.602129,12.1872071 L145.602129,14.9390815 L140.898142,14.9390815 L140.898142,27.7284443 L137.591484,27.7284443 L137.591484,14.9390815 L132.866165,14.9390815 L132.866165,12.1872071 L145.602129,12.1872071 Z M150.914114,27.7284443 L150.914114,12.1872071 L154.167438,12.1872071 L154.167438,18.1126991 L160.311421,18.1126991 L160.311421,12.1872071 L163.575411,12.1872071 L163.575411,27.7284443 L160.311421,27.7284443 L160.311421,20.7907685 L154.167438,20.7907685 L154.167438,27.7284443 L150.914114,27.7284443 Z M173.132718,27.7284443 L169.868727,27.7284443 L169.868727,12.1872071 L173.132718,12.1872071 L173.132718,27.7284443 Z M179.554033,12.1872071 L182.999356,12.1872071 L189.260672,23.0365511 L189.260672,12.1872071 L192.321997,12.1872071 L192.321997,27.7284443 L189.036673,27.7284443 L182.615358,16.6893158 L182.615358,27.7284443 L179.554033,27.7284443 L179.554033,12.1872071 Z M198.849978,12.1872071 L202.081969,12.1872071 L202.081969,18.5871603 L208.151285,12.1872071 L212.396607,12.1872071 L205.953958,18.5871603 L212.727273,27.7284443 L208.503284,27.7284443 L203.649965,20.9383786 L202.081969,22.5304592 L202.081969,27.7284443 L198.849978,27.7284443 L198.849978,12.1872071 Z" id="a" fill="#232323"></path>
                    <path d="M26.7717996,10.6896552 L26.7306123,32.1453236 L9.67903524,32.1453236 L3.26849658e-14,40 L26.7717996,10.6896552 Z M33.6363636,-9.9475983e-15 L6.864564,29.3103448 L6.864564,7.88489559 L23.916141,7.88489559 L33.6363636,-9.9475983e-15 Z" id="Combined-Shape" fill="#D12F30"></path>
                </g>
            </g>
        </g>
    </g>
</svg>